<svg fill="none" height="56" viewBox="0 0 111 56" width="111" xmlns="http://www.w3.org/2000/svg">
    <path d="M65.3565 24.6064C65.193 25.1822 65.0703 25.711 64.9997 26.1798C64.9898 26.2459 64.9811 26.3168 64.9712 26.3901C65.5201 26.4346 66.0652 26.4827 66.6042 26.5368C66.8954 25.9562 67.2286 25.3132 67.609 24.5968C66.8656 24.5944 66.1135 24.598 65.3565 24.6064Z"
          fill="#FFE512"/>
    <path d="M36.4966 28.2135C36.6762 27.8529 36.8571 27.5067 37.0392 27.1846C36.4643 27.2843 35.8907 27.3865 35.317 27.4923C35.2526 27.8709 35.1584 28.193 35.0345 28.4659C35.5116 28.3817 35.9972 28.2976 36.4966 28.2135Z"
          fill="#FFE512"/>
    <path d="M45.3801 26.9455C45.706 26.7519 45.9352 26.6678 46.126 26.6221C46.3986 26.5572 46.639 26.5248 46.862 26.5248C47.142 26.5248 47.3947 26.5825 47.614 26.6846C48.0514 26.6353 48.4925 26.5873 48.9423 26.538C49.8492 26.4406 50.7698 26.3601 51.6978 26.2952C51.9865 25.9142 52.2566 25.5572 52.5155 25.217C49.3028 25.4839 46.0467 25.8409 42.7857 26.2916C42.7411 26.5837 42.6804 26.919 42.6023 27.3C43.4981 27.1798 44.4211 27.0608 45.3801 26.9455Z"
          fill="#FFE512"/>
    <path d="M76.5262 24.8781C75.9513 24.8421 75.3677 24.8096 74.7779 24.7795C74.2823 25.6726 73.7954 26.5789 73.3246 27.5044C74.1621 27.6679 74.9687 27.8433 75.7419 28.0308C75.862 27.2448 76.1222 26.2003 76.5262 24.8781Z"
          fill="#FFE512"/>
    <path d="M11.1293 40.9976C11.0104 40.7548 10.2298 37.8304 13.7114 35.7186C13.9555 35.5695 14.2132 35.4097 14.4857 35.2414C14.6666 34.9589 14.8537 34.6692 15.0532 34.364C15.5513 33.6007 16.001 32.936 16.4136 32.3411C11.8876 33.8904 7.45567 35.4349 3.74487 37.7715C2.24692 38.715 -1.96443 41.9495 1.07731 44.202C1.07607 44.202 11.247 41.2367 11.1293 40.9976Z"
          fill="#FFDF00"/>
    <path d="M21.1639 31.9756C22.2282 31.5825 23.4375 31.1823 24.8215 30.7796C25.0519 30.3782 25.3233 29.9863 25.6466 29.6041C24.3345 29.9383 23.0361 30.2917 21.7512 30.6631C21.5418 31.1138 21.3436 31.5549 21.1639 31.9756Z"
          fill="#FFE512"/>
    <path d="M59.7105 24.7615C59.3338 24.7783 58.9547 24.7951 58.5755 24.8144C58.3661 25.2447 58.1691 25.6714 57.9821 26.0945C58.2794 26.0957 58.5768 26.0981 58.8729 26.1017C59.1257 25.6906 59.4069 25.2399 59.7105 24.7615Z"
          fill="#FFE512"/>
    <path d="M92.7025 27.3385C92.679 27.4936 92.6542 27.6402 92.6306 27.7977C92.5055 28.639 91.9541 29.4203 90.9444 30.1872C90.0374 30.8759 89.2259 31.3002 88.4651 31.4817C88.2074 31.543 87.9547 31.5742 87.7155 31.5742C87.101 31.5742 85.9797 31.3579 85.3763 29.9047L85.3689 29.8855L85.3614 29.8662C85.0393 28.9888 84.9674 27.9467 85.1446 26.7676C85.1905 26.4575 85.2623 26.1282 85.3466 25.7856C84.732 25.693 84.1039 25.6065 83.4596 25.5248C83.5835 26.1017 83.8523 27.1522 84.4396 29.0706C84.8126 30.3158 84.934 31.3206 84.8101 32.1452C84.7927 32.2593 84.7605 32.3675 84.7357 32.4781C86.8978 36.0972 79.9606 40.8377 55.3442 45.5662C55.3442 45.5662 27.779 49.1564 20.9447 45.7453C20.9447 45.7453 28.9907 45.7633 34.736 42.3233C34.736 42.3233 30.625 41.1791 29.2732 41.7295C27.9326 42.2776 17.5882 43.9448 1.90869 46.3931L13.6432 55.8033C13.6432 55.8033 17.8608 56.8946 20.4193 53.9378C20.4193 53.9378 13.5008 52.0724 14.4845 50.4005C14.4845 50.4005 65.2153 53.8597 94.0084 38.7884C103.385 33.8844 101.226 29.8386 92.7025 27.3385Z"
          fill="#FFDF00"/>
    <path d="M50.1628 40.6153C49.7638 40.6694 49.9534 40.6405 49.2558 40.7042C48.6202 40.7631 47.6823 40.7139 47.183 40.6526C45.6652 40.4675 45.5624 40.4061 44.4089 39.3953C43.8885 38.9386 43.5478 37.751 43.0658 36.1128C42.7622 35.1248 42.4426 34.5827 42.1031 34.4865C41.9916 34.4553 41.8714 34.5202 41.8057 34.6127C40.397 36.6092 39.6325 37.6921 39.5148 37.8616C38.225 39.5383 37.2859 40.447 36.6986 40.5876C34.793 41.0432 34.0087 40.1489 34.347 37.9073C34.6889 35.6404 35.4645 33.0898 36.6701 30.2544C38.2424 26.5404 39.8741 24.4814 41.5604 24.0788C41.9271 23.991 42.0015 24.6701 41.7834 26.1149C41.7054 26.6377 41.5654 27.3325 41.3634 28.1967C41.1404 29.2111 41.0016 29.8926 40.9496 30.2424C40.822 30.9203 40.9669 31.21 41.3832 31.1102C41.9705 30.9696 42.6061 30.579 43.2925 29.9335C44.8561 28.4791 45.8808 27.6943 46.3714 27.5777C46.9339 27.443 47.266 27.508 47.3676 27.7712C47.3713 27.7796 47.3763 27.7928 47.3825 27.8084C47.4717 28.0729 47.4717 28.3565 47.4023 28.627L47.3986 28.6414C47.3242 28.9299 47.2115 29.2027 47.0616 29.4587C47.0009 29.5633 46.9302 29.6799 46.8497 29.8049C46.6973 30.0345 46.5437 30.3362 46.5251 30.4612C46.452 30.9347 46.613 31.2544 46.8683 31.6739C47.1223 32.0934 47.4704 32.2509 47.9103 32.1463C48.4245 32.0237 49.6089 30.7328 51.4662 28.27C54.5278 24.2242 56.2748 21.9333 56.7096 21.3972C58.7602 18.8899 60.2755 17.5197 61.2543 17.2853C61.4761 17.2324 61.569 17.4019 61.5293 17.7925C61.5256 17.8286 61.5194 17.8635 61.5083 17.9019C61.5033 17.9199 61.4959 17.9344 61.486 17.9488C57.8322 23.2062 55.6676 28.0585 54.9961 32.5057C54.6603 34.7245 54.2936 36.3015 53.8934 37.2366C53.0918 39.0864 51.8837 40.3821 50.1628 40.6153Z"
          fill="#29712A"/>
    <path d="M66.7244 18.4632C66.7182 18.486 66.7108 18.5004 66.7021 18.5184C65.1695 21.7217 64.2675 24.2265 63.9949 26.0355C63.8884 26.7338 63.819 27.7471 63.783 29.0764C63.7471 30.4058 63.6802 31.395 63.5823 32.0429C63.4423 32.9648 63.0273 33.8446 62.3347 34.6824C61.6433 35.5189 60.8578 36.0442 59.9781 36.2545C59.1703 36.4468 58.4863 35.9023 57.9263 34.6186C57.3923 33.4744 57.1928 32.4527 57.3291 31.5549C57.5026 30.4094 58.8531 27.9009 61.3819 24.0306C63.9094 20.1603 65.5895 18.1254 66.4209 17.9271C66.6786 17.8658 66.7839 18.0281 66.7356 18.4151C66.7331 18.4295 66.7294 18.4463 66.7244 18.4632ZM65.5883 13.3681C65.421 12.9029 65.3739 12.4462 65.4408 11.9978C65.5399 11.35 65.872 10.7778 66.4432 10.2814C66.9041 9.88359 67.3786 9.62638 67.868 9.50859C68.381 9.38599 68.796 9.52781 69.1107 9.93287C69.4254 10.3379 69.5171 10.9882 69.3821 11.886C69.0314 14.2034 68.5073 15.4943 67.8086 15.7564C67.0057 16.0677 66.2672 15.272 65.5883 13.3681Z"
          fill="#29712A"/>
    <path d="M20.9496 28.7868C20.1195 28.9851 18.4394 31.02 15.9106 34.8903C13.3806 38.7606 12.0301 41.2691 11.8579 42.4146C11.791 42.8545 11.8058 43.3232 11.9 43.822C14.1042 43.4711 16.2006 43.1345 18.1223 42.8196C18.2127 42.1718 18.2759 41.2126 18.3106 39.9361C18.3465 38.6067 18.4171 37.5935 18.5237 36.8952C18.7938 35.1031 19.6822 32.627 21.19 29.4659C21.2123 29.419 21.2408 29.3421 21.2532 29.2916C21.2705 29.2075 21.2755 29.1678 21.2755 29.1029C21.2743 28.8421 21.1665 28.7363 20.9496 28.7868Z"
          fill="#29712A"/>
    <path d="M23.642 20.7949C23.326 20.3899 22.9122 20.2481 22.398 20.3707C21.9099 20.4872 21.4341 20.7457 20.9744 21.1435C20.4045 21.6399 20.0712 22.212 19.9721 22.8599C19.9052 23.3082 19.9535 23.7662 20.1195 24.2301C20.7972 26.134 21.5382 26.9297 22.3398 26.6172C23.0374 26.3552 23.5627 25.0643 23.9133 22.7469C24.0471 21.8503 23.9567 21.2 23.642 20.7949Z"
          fill="#29712A"/>
    <path d="M83.8065 32.0021C83.6938 32.7497 83.3865 33.418 82.8835 34.0057C82.3842 34.5935 81.7659 34.9745 81.0324 35.15C79.4428 35.5298 78.2385 34.8447 77.4183 33.0946C76.7046 31.585 76.4803 29.9455 76.748 28.175C76.9065 27.1293 77.3464 25.5343 78.0712 23.3925C78.796 21.2506 79.2359 19.6556 79.3945 18.6087L79.4849 18.0101C79.6286 17.063 79.5146 16.6339 79.1479 16.7216C78.6833 16.8322 77.8209 17.8671 76.5596 19.8262C75.6787 21.1905 74.8287 22.6028 74.0122 24.0631C72.9789 25.9081 72.1079 27.8361 71.3657 29.8085C71.1489 30.3842 70.9643 30.853 70.8107 31.2148C70.0722 32.9769 69.252 33.9649 68.3475 34.1812C67.6376 34.3507 66.9611 34.1872 66.3181 33.6932C65.6725 33.198 65.4062 32.5898 65.5152 31.8675C65.6998 30.6463 66.9165 27.9659 69.1678 23.8252C71.5789 19.4068 73.2614 17.0822 74.2142 16.855L74.182 17.0786L73.8648 17.7673L72.6593 20.3611C71.8205 22.1701 71.4054 23.2073 71.4128 23.4694L71.5937 23.6785C74.0259 20.5282 75.5548 18.5894 76.1842 17.8623C78.438 15.2576 80.201 13.8044 81.4735 13.5004C82.3024 13.302 82.6741 14.9788 82.5861 18.5305C82.5167 20.164 82.3928 23.5042 82.3544 24.5211C82.3433 24.8096 82.3557 25.098 82.4003 25.3829C82.4052 25.4177 82.4114 25.4514 82.4176 25.4863C82.5613 26.2507 82.9095 27.5368 83.4633 29.3469C83.7941 30.4431 83.9081 31.329 83.8065 32.0021Z"
          fill="#29712A"/>
    <path d="M105.374 3.80171C105.313 4.20076 105.12 4.57575 104.795 4.92913C104.471 5.28371 104.112 5.50608 103.722 5.59983C103.525 5.64671 103.25 5.64069 102.893 5.5818C102.536 5.5229 102.261 5.51689 102.066 5.56377C101.38 5.72723 100.457 6.15272 99.2927 6.83904C98.0513 7.56743 97.2125 8.21289 96.7738 8.7742C94.8683 11.2466 93.1523 17.5413 91.6246 27.6581C91.5391 28.2327 91.103 28.8156 90.3187 29.4118C89.5331 30.008 88.8343 30.3794 88.2235 30.5248C87.3178 30.7412 86.6847 30.4118 86.3217 29.538C86.054 28.8096 85.9995 27.9346 86.1532 26.9129C86.3762 25.4429 87.0787 23.509 88.2669 21.1123C89.2321 19.2492 90.2084 17.3826 91.1984 15.5124C92.5774 12.7815 93.3257 11.017 93.4459 10.2189L93.3418 10.2081C92.9639 10.3704 92.2812 10.8344 91.295 11.5976C90.4327 12.308 89.854 12.7142 89.2692 12.838C89.0958 12.8753 88.8666 12.8476 88.7612 12.7346C88.6658 12.6313 88.6572 12.4918 88.6634 12.4065C88.6968 11.9041 89.2891 11.3091 90.3137 10.6072C90.7882 10.2778 92.1896 9.34272 94.5189 7.80181C94.9624 7.35949 95.5163 6.35106 96.1779 4.77529C97.459 1.75598 98.4044 0.172998 99.0164 0.0263589C99.5777 -0.10826 99.7908 0.272761 99.6558 1.16942C99.5765 1.69227 99.372 2.2704 99.04 2.90143C98.2148 4.46758 97.7737 5.43757 97.718 5.81138L97.6065 6.20562C99.6335 4.92674 101.255 3.93512 102.146 3.39545C102.678 3.07332 103.269 2.85937 103.889 2.77884C103.893 2.77884 103.897 2.77764 103.902 2.77764C104.209 2.73797 104.447 2.74759 104.612 2.75961C105.215 2.80528 105.47 3.15385 105.374 3.80171Z"
          fill="#29712A"/>
    <path d="M28.8817 40.8208C28.9647 40.786 29.127 40.7475 29.3228 40.7114C29.6362 40.6538 30.0352 40.6045 30.3214 40.5937C30.5333 40.5852 30.7588 40.6045 30.988 40.6213C32.4996 38.9121 33.357 37.4457 33.5403 36.2269C33.751 34.8327 33.3012 33.8338 32.1898 33.2353C31.185 32.7064 29.9621 32.6139 28.5199 32.9588C28.3972 32.9877 28.2374 33.0394 28.0379 33.1103C27.7926 33.1692 27.7022 32.9865 27.7666 32.5622C27.8793 31.8146 28.2411 31.0261 28.8495 30.1955C29.4578 29.365 30.1157 28.8662 30.8244 28.6955C31.0685 28.6378 31.3386 28.645 31.6347 28.7183C32.2951 28.8734 32.7226 28.9263 32.9184 28.8806C33.4078 28.764 33.7448 28.5921 33.9319 28.3685C34.1189 28.1438 34.2515 27.7688 34.3308 27.2459C34.4621 26.3745 34.0756 26.0464 33.1711 26.2627C31.3869 26.6894 29.7255 27.4707 28.1866 28.6065C26.3294 29.9876 25.2762 31.4997 25.0259 33.1439C24.8723 34.1656 25.3493 34.6764 26.4557 34.6764C27.4853 34.5743 28.5137 34.4733 29.5433 34.3711C30.6535 34.3459 31.1367 34.8194 30.9905 35.7906C30.8914 36.4493 30.542 37.0479 30.0005 37.4566C29.7131 37.6741 29.3723 37.8917 28.9783 38.108C28.2064 38.5323 27.4915 38.8232 26.8312 38.9818C25.975 39.1862 25.296 38.9289 24.793 38.2078C23.6816 36.6717 22.9667 35.9421 22.6495 36.0178C21.6447 36.2582 20.9645 37.5731 20.6039 39.965C20.4615 40.911 20.5185 41.7127 20.7638 42.3822C25.187 41.6418 28.2709 41.0744 28.8817 40.8208Z"
          fill="#29712A"/>
    <path d="M108.633 0.254761C109.031 0.254761 109.419 0.353318 109.798 0.55164C110.177 0.749963 110.472 1.03242 110.683 1.40142C110.895 1.77042 111 2.15385 111 2.5541C111 2.94955 110.896 3.33057 110.688 3.69596C110.48 4.06136 110.187 4.34501 109.812 4.54694C109.436 4.74887 109.044 4.84984 108.633 4.84984C108.223 4.84984 107.831 4.74887 107.455 4.54694C107.08 4.34501 106.787 4.06136 106.578 3.69596C106.369 3.33057 106.265 2.94955 106.265 2.5541C106.265 2.15385 106.371 1.77042 106.583 1.40142C106.795 1.03242 107.091 0.749963 107.47 0.55164C107.848 0.353318 108.236 0.254761 108.633 0.254761ZM108.633 0.634568C108.3 0.634568 107.977 0.71751 107.662 0.882179C107.347 1.04805 107.101 1.28364 106.922 1.59134C106.744 1.89904 106.656 2.21876 106.656 2.5517C106.656 2.88224 106.744 3.19954 106.919 3.50364C107.093 3.80773 107.337 4.04332 107.652 4.2128C107.966 4.38227 108.294 4.46761 108.635 4.46761C108.975 4.46761 109.304 4.38347 109.617 4.2128C109.931 4.04332 110.175 3.80653 110.348 3.50364C110.522 3.20075 110.608 2.88344 110.608 2.5517C110.608 2.21876 110.52 1.89904 110.343 1.59134C110.166 1.28364 109.92 1.04685 109.604 0.882179C109.288 0.71751 108.964 0.634568 108.633 0.634568ZM107.595 3.82336V1.35094H108.471C108.771 1.35094 108.987 1.37378 109.12 1.41945C109.254 1.46512 109.361 1.54445 109.44 1.65864C109.519 1.77282 109.559 1.89302 109.559 2.02043C109.559 2.20072 109.492 2.35818 109.36 2.4928C109.227 2.62622 109.05 2.70194 108.83 2.71877C108.921 2.75483 108.993 2.7993 109.047 2.84978C109.15 2.94714 109.275 3.1106 109.424 3.34017L109.735 3.82457H109.233L109.008 3.43513C108.829 3.12863 108.687 2.93632 108.578 2.85939C108.502 2.8029 108.393 2.77406 108.248 2.77406H108.007V3.82457H107.595V3.82336ZM108.007 2.4315H108.506C108.745 2.4315 108.907 2.39665 108.994 2.32814C109.081 2.25962 109.124 2.16827 109.124 2.05409C109.124 1.98077 109.103 1.91586 109.061 1.85817C109.019 1.80047 108.961 1.75721 108.886 1.72836C108.812 1.69951 108.674 1.68628 108.474 1.68628H108.007V2.4315Z"
          fill="#29712A"/>
</svg>
